<svg width="101" height="41" viewBox="0 0 101 41" fill="none" xmlns="http://www.w3.org/2000/svg">
<path fill-rule="evenodd" clip-rule="evenodd" d="M23.0281 19.3836C24.0632 16.0428 23.2583 12.2545 20.6133 9.6095C18.1646 7.16079 14.736 6.28918 11.5897 6.99468C12.0425 5.53327 12.8474 4.15747 14.0045 3.00045C17.8065 -0.801582 23.9708 -0.80158 27.7728 3.00045C31.5749 6.80248 31.5749 12.9668 27.7728 16.7688C26.4195 18.1221 24.7669 18.9937 23.0281 19.3836ZM19.3223 21.0378C18.2873 24.3786 19.0922 28.1668 21.7372 30.8118C24.1859 33.2605 27.6146 34.1321 30.7609 33.4265C30.3081 34.888 29.5032 36.2639 28.3461 37.421C24.5441 41.223 18.3798 41.223 14.5777 37.421C10.7757 33.619 10.7757 27.4547 14.5777 23.6526C15.931 22.2994 17.5835 21.4278 19.3223 21.0378ZM32.3016 19.5995C29.6566 22.2445 25.8681 23.0494 22.5272 22.0142C22.9171 23.753 23.7887 25.4056 25.1421 26.7589C28.9441 30.561 35.1084 30.561 38.9104 26.7589C42.7125 22.9569 42.7125 16.7926 38.9104 12.9906C37.7535 11.8336 36.3778 11.0287 34.9165 10.5759C35.6219 13.7222 34.7503 17.1508 32.3016 19.5995ZM19.8233 18.4075C16.4824 17.3723 12.6941 18.1773 10.049 20.8223C7.6004 23.2709 6.72877 26.6994 7.43416 29.8456C5.97279 29.3928 4.59702 28.5879 3.44002 27.4309C-0.362006 23.6289 -0.362006 17.4645 3.44002 13.6625C7.24205 9.86049 13.4064 9.86049 17.2084 13.6625C18.5618 15.0159 19.4334 16.6686 19.8233 18.4075ZM52.6052 16.4494C53.3397 16.7184 54.1362 16.8528 54.9948 16.8528C55.9981 16.8528 56.8929 16.677 57.6791 16.3253C58.4756 15.9632 59.1376 15.4564 59.6652 14.8047L57.7101 13.0358C57.3584 13.4496 56.9705 13.7651 56.5464 13.9823C56.1326 14.1996 55.6671 14.3082 55.1499 14.3082C54.7051 14.3082 54.2965 14.2358 53.9241 14.0909C53.5517 13.9461 53.2311 13.7392 52.9621 13.4703C52.7035 13.191 52.4966 12.86 52.3415 12.4772C52.1966 12.0945 52.1242 11.6704 52.1242 11.2049C52.1242 10.7394 52.1966 10.3153 52.3415 9.93257C52.4966 9.54984 52.7035 9.22399 52.9621 8.95504C53.2311 8.67575 53.5517 8.4637 53.9241 8.31888C54.2965 8.17406 54.7051 8.10165 55.1499 8.10165C55.6671 8.10165 56.1326 8.21026 56.5464 8.42749C56.9705 8.64472 57.3584 8.96022 57.7101 9.37398L59.6652 7.60513C59.1376 6.9431 58.4756 6.43623 57.6791 6.08453C56.8929 5.73283 55.9981 5.55698 54.9948 5.55698C54.1362 5.55698 53.3397 5.69662 52.6052 5.97592C51.8812 6.24487 51.2502 6.63277 50.7123 7.13964C50.1847 7.6465 49.7709 8.24647 49.471 8.93953C49.171 9.62224 49.021 10.3774 49.021 11.2049C49.021 12.0324 49.171 12.7927 49.471 13.4858C49.7709 14.1685 50.1847 14.7633 50.7123 15.2702C51.2502 15.777 51.8812 16.1701 52.6052 16.4494ZM61.0841 19.5682C61.5392 19.713 61.9892 19.7854 62.434 19.7854C62.9926 19.7854 63.4994 19.7027 63.9546 19.5372C64.4201 19.3716 64.839 19.082 65.2114 18.6682C65.5941 18.2648 65.9303 17.7011 66.2199 16.977L69.8508 8.22578H67.0423L64.9643 13.3644L62.8995 8.22578H59.8738L63.4774 16.7447C63.3628 16.9614 63.2323 17.1267 63.0857 17.2407C62.8995 17.3856 62.646 17.458 62.3254 17.458C62.0978 17.458 61.865 17.4114 61.6271 17.3183C61.3995 17.2356 61.1978 17.1166 61.022 16.9614L59.9979 19.0251C60.2772 19.2527 60.6392 19.4337 61.0841 19.5682ZM70.8073 16.6356V8.22578H79.4964V16.6356H76.5639V10.5687H73.7399V16.6356H70.8073ZM83.2274 16.2167C83.9722 16.5891 84.8411 16.7753 85.8341 16.7753C86.641 16.7753 87.3392 16.6615 87.9288 16.4339C88.5184 16.196 89.0149 15.8546 89.4184 15.4098L87.8667 13.7961C87.5771 14.0444 87.2823 14.2306 86.9823 14.3547C86.6927 14.4685 86.341 14.5254 85.9272 14.5254C85.4824 14.5254 85.0997 14.4478 84.779 14.2926C84.4583 14.1271 84.2101 13.8944 84.0342 13.5944C83.963 13.4653 83.9071 13.3257 83.8665 13.1755H89.977C89.9873 13.0617 89.9977 12.9376 90.008 12.8031C90.0183 12.6686 90.0235 12.5497 90.0235 12.4462C90.0235 11.5152 89.8218 10.7239 89.4184 10.0722C89.0149 9.42053 88.4719 8.92918 87.7892 8.59817C87.1064 8.25681 86.3513 8.08613 85.5238 8.08613C84.6445 8.08613 83.8532 8.27233 83.1498 8.64472C82.4464 9.00677 81.893 9.5188 81.4895 10.1808C81.0965 10.8325 80.8999 11.5773 80.8999 12.4152C80.8999 13.2531 81.1016 14.003 81.5051 14.665C81.9188 15.3167 82.4929 15.8339 83.2274 16.2167ZM83.8234 11.6238C83.8586 11.4251 83.9185 11.2441 84.0032 11.0808C84.148 10.7911 84.3497 10.5687 84.6083 10.4136C84.8773 10.2584 85.1876 10.1808 85.5393 10.1808C85.891 10.1808 86.1962 10.2584 86.4548 10.4136C86.7237 10.5687 86.9306 10.786 87.0754 11.0653C87.1685 11.2328 87.2318 11.419 87.2653 11.6238H83.8234ZM96.8726 16.7753C96.1589 16.7753 95.5486 16.6201 95.0417 16.3098C94.8549 16.1916 94.6842 16.0523 94.5297 15.8919V19.6458H91.5816V8.22578H94.39V9.06483C94.5619 8.86092 94.7585 8.68985 94.9796 8.55162C95.4865 8.2413 96.1175 8.08613 96.8726 8.08613C97.6381 8.08613 98.3312 8.26716 98.9518 8.6292C99.5828 8.9809 100.079 9.4826 100.441 10.1343C100.814 10.7756 101 11.5411 101 12.4307C101 13.3203 100.814 14.0909 100.441 14.7426C100.079 15.3943 99.5828 15.896 98.9518 16.2477C98.3312 16.5994 97.6381 16.7753 96.8726 16.7753ZM96.252 14.4323C96.583 14.4323 96.8778 14.3547 97.1364 14.1996C97.4053 14.0444 97.6174 13.8168 97.7726 13.5168C97.9381 13.2169 98.0208 12.8548 98.0208 12.4307C98.0208 12.0066 97.9381 11.6445 97.7726 11.3446C97.6174 11.0446 97.4053 10.817 97.1364 10.6618C96.8778 10.5067 96.583 10.4291 96.252 10.4291C95.921 10.4291 95.621 10.5067 95.352 10.6618C95.0934 10.817 94.8814 11.0446 94.7159 11.3446C94.5607 11.6445 94.4831 12.0066 94.4831 12.4307C94.4831 12.8548 94.5607 13.2169 94.7159 13.5168C94.8814 13.8168 95.0934 14.0444 95.352 14.1996C95.621 14.3547 95.921 14.4323 96.252 14.4323ZM49.7037 24.7386V35.6H52.7294V27.1746H57.648L57.6636 24.7386H49.7037ZM58.4276 35.6V27.1901H61.3602V31.5968L64.8824 27.1901H67.5977V35.6H64.6496V31.1778L61.1585 35.6H58.4276ZM73.5231 32.6053L75.4761 35.6H78.9518L75.9373 31.2187L78.7656 27.1901H75.6468L73.5855 30.2934H72.528V27.1901H69.5799V35.6H72.528V32.6053H73.5231Z" fill="white"/>
</svg>
