<svg width="24" height="21" viewBox="0 0 24 21" fill="none" xmlns="http://www.w3.org/2000/svg">
<path d="M23.9889 0.931178C24.0117 0.793767 23.9983 0.652774 23.9499 0.522149C23.9015 0.391524 23.8199 0.275795 23.7131 0.186413C23.6062 0.0970317 23.4779 0.037095 23.3408 0.012534C23.2037 -0.0120269 23.0625 -0.000360724 22.9313 0.046378L0.531298 8.04638C0.383646 8.09903 0.254717 8.1939 0.160525 8.3192C0.0663328 8.44451 0.0110296 8.59472 0.0014847 8.75119C-0.00806016 8.90766 0.028574 9.06348 0.106837 9.19931C0.185099 9.33513 0.301541 9.44497 0.441698 9.51518L6.8417 12.7152C6.96782 12.7783 7.1084 12.807 7.24917 12.7983C7.38995 12.7895 7.52592 12.7438 7.6433 12.6656L12.9553 9.12318L9.7761 13.1008C9.70691 13.1874 9.65647 13.2874 9.62797 13.3945C9.59947 13.5016 9.59352 13.6134 9.61052 13.7229C9.62752 13.8324 9.66709 13.9372 9.72671 14.0306C9.78634 14.124 9.86472 14.2041 9.9569 14.2656L19.5569 20.6656C19.6681 20.7395 19.796 20.7844 19.9289 20.7962C20.0619 20.8081 20.1957 20.7864 20.3182 20.7333C20.4407 20.6802 20.5479 20.5973 20.6301 20.4921C20.7123 20.3869 20.7669 20.2628 20.7889 20.1312L23.9889 0.931178Z" fill="#2F2E33"/>
</svg>
